HIERARCHY
ROOT Hips
{
	OFFSET 0.000000 0.000000 0.000000 
	CHANNELS 6 Xposition Yposition Zposition Yrotation Zrotation Xrotation 
	JOINT Lumbar
	{
		OFFSET 0.000000 0.000000 0.000000 
		CHANNELS 3 Zrotation Xrotation Yrotation
		JOINT Neck
		{
			OFFSET 0.000000 0.445665 0.000000 
			CHANNELS 3 Zrotation Xrotation Yrotation
			End Site
			{
				OFFSET 0.000000 0.227535 0.000000 
			}
		}
		JOINT RightShoulder
		{
			OFFSET 0.019635 0.377685 0.194865 
			CHANNELS 3 Zrotation Xrotation Yrotation
			JOINT RightElbow
			{
				OFFSET 0.000000 -0.243375 0.000000 
				CHANNELS 2 Zrotation Yrotation
				JOINT RightWrist
				{
					OFFSET 0.000000 -0.264825 0.000000 
					CHANNELS 2 Zrotation Xrotation
					End Site
					{
						OFFSET 0.006600 -0.176220 0.000990 
					}
				}
			}
		}
		JOINT LeftShoulder
		{
			OFFSET 0.019635 0.377685 -0.194865 
			CHANNELS 3 Zrotation Xrotation Yrotation
			JOINT LeftElbow
			{
				OFFSET 0.000000 -0.243375 0.000000 
				CHANNELS 2 Zrotation Yrotation
				JOINT LeftWrist
				{
					OFFSET 0.000000 -0.264825 0.000000 
					CHANNELS 2 Zrotation Xrotation
					End Site
					{
						OFFSET 0.006600 -0.176220 -0.000990 
					}
				}
			}
		}
	}
	JOINT RightHip
	{
		OFFSET 0.052140 -0.069960 0.075570 
		CHANNELS 3 Zrotation Xrotation Yrotation
		JOINT RightKnee
		{
			OFFSET 0.000000 -0.402270 0.000000 
			CHANNELS 1 Zrotation
			JOINT RightAnkle
			{
				OFFSET 0.000000 -0.404085 0.000000 
				CHANNELS 3 Zrotation Xrotation Yrotation
				End Site
				{
					OFFSET 0.204105 -0.089430 0.008415 
				}
			}
		}
	}
	JOINT LeftHip
	{
		OFFSET 0.052140 -0.069960 -0.075570 
		CHANNELS 3 Zrotation Xrotation Yrotation
		JOINT LeftKnee
		{
			OFFSET 0.000000 -0.402270 0.000000 
			CHANNELS 1 Zrotation
			JOINT LeftAnkle
			{
				OFFSET 0.000000 -0.404085 0.000000 
				CHANNELS 3 Zrotation Xrotation Yrotation
				End Site
				{
					OFFSET 0.204105 -0.089430 -0.008415 
				}
			}
		}
	}
}
MOTION
Frames: 26
Frame Time: 0.02
0 0.95578 -0 181.67231 0 2.75153 7.90128 -1.33818 -2.368 -28.54024 3.48375 4.72322 20.99034 -15.15276 7.50095 10.89078 82.50363 0.44894 1.69688 21.11161 3.32348 0.83884 7.34246 -73.06429 -5.00234 -1.69371 0.67368 2.69014 10.4438 -20.2903 12.28148 -10.00225 -12.84752 0.84422 -1.86305 -5.79214 -16.65637 9.02087 7.20094 12.03002
-0.00014 0.95582 -1e-05 181.67865 0 2.74472 7.96892 -1.34426 -2.36776 -28.53121 3.45496 4.71727 20.96355 -15.1337 7.60504 10.85891 82.50608 0.45535 1.77834 21.2042 3.31511 0.46974 7.43994 -73.32955 -5.09257 -1.57571 0.65216 2.7031 10.46505 -20.26351 12.26947 -9.98328 -12.88504 0.83909 -1.85491 -5.79201 -16.66014 9.01543 7.22967 12.02959
-0.00029 0.95585 -3e-05 181.68484 0 2.73796 8.03626 -1.35029 -2.36739 -28.52192 3.42634 4.71106 20.93671 -15.11461 7.7088 10.82733 82.50882 0.46164 1.85899 21.29577 3.30734 0.10207 7.53684 -73.59366 -5.18223 -1.45843 0.63086 2.71595 10.48614 -20.23703 12.25756 -9.96447 -12.92218 0.83399 -1.84684 -5.7919 -16.66391 9.01001 7.25819 12.02929
-0.00043 0.95588 -4e-05 181.69047 0 2.73131 8.10311 -1.35619 -2.36667 -28.51212 3.39834 4.70438 20.91002 -15.09563 7.81175 10.7962 82.51296 0.4677 1.93737 21.38535 3.3009 -0.26192 7.63184 -73.85647 -5.27045 -1.34294 0.61008 2.72844 10.50672 -20.21129 12.24595 -9.94608 -12.95803 0.82891 -1.83901 -5.79194 -16.6677 9.00467 7.28614 12.02958
-0.00058 0.95592 -6e-05 181.69905 0 2.72404 8.17259 -1.36277 -2.36801 -28.50575 3.36737 4.70095 20.88328 -15.07656 7.91838 10.76219 82.50997 0.47519 2.02797 21.48686 3.2862 -0.64354 7.73626 -74.12703 -5.36628 -1.218 0.58637 2.74276 10.52992 -20.18134 12.23277 -9.92545 -13.00059 0.82366 -1.82993 -5.79127 -16.67134 8.99893 7.31709 12.02682
-0.00071 0.95594 -7e-05 181.70138 0 2.71812 8.23643 -1.3679 -2.36487 -28.49164 3.34246 4.69014 20.85616 -15.05734 8.01756 10.73464 82.52186 0.47951 2.09252 21.56211 3.28981 -0.98874 7.82108 -74.38034 -5.44594 -1.11317 0.569 2.75322 10.54763 -20.1605 12.22288 -9.90958 -13.029 0.81883 -1.82351 -5.79202 -16.67533 8.99402 7.34168 12.03045
-0.00077 0.95596 -6e-05 181.68586 0 2.7158 8.28595 -1.36924 -2.34983 -28.45932 3.33638 4.66224 20.83167 -15.04058 8.09426 10.72186 82.57826 0.47612 2.0852 21.57244 3.33898 -1.22873 7.84836 -74.59639 -5.48099 -1.06299 0.5684 2.75283 10.54973 -20.16393 12.22244 -9.90684 -13.01711 0.81458 -1.82458 -5.79741 -16.68018 8.99168 7.34869 12.05316
-0.00081 0.95597 -5e-05 181.66407 0 2.71487 8.32959 -1.36909 -2.33016 -28.41877 3.33608 4.62641 20.80623 -15.02329 8.16386 10.71614 82.64915 0.46939 2.05148 21.55511 3.40746 -1.43295 7.85644 -74.79342 -5.49958 -1.03326 0.57437 2.74859 10.54649 -20.17678 12.22527 -9.90893 -12.99119 0.81085 -1.82834 -5.80406 -16.68546 8.99015 7.3493 12.08209
-0.00085 0.95598 -4e-05 181.64557 0 2.71337 8.37513 -1.36949 -2.31228 -28.3796 3.33173 4.59181 20.7786 -15.00421 8.23807 10.70915 82.71117 0.46341 2.02984 21.54522 3.47067 -1.65698 7.87568 -74.99255 -5.52589 -0.9946 0.57778 2.74622 10.54587 -20.18584 12.22632 -9.90882 -12.97241 0.80723 -1.8308 -5.80968 -16.69056 8.98803 7.35286 12.10726
-0.00091 0.95599 -2e-05 181.62538 0 2.71157 8.42388 -1.37041 -2.29571 -28.34954 3.33319 4.56656 20.76142 -14.99314 8.30648 10.69395 82.78258 0.46042 2.00812 21.55601 3.51975 -1.86642 7.88498 -75.21894 -5.55181 -0.95416 0.57926 2.7433 10.54403 -20.19262 12.22851 -9.90868 -12.95026 0.80211 -1.83352 -5.81735 -16.69541 8.98673 7.35619 12.13631
-0.00093 0.956 -1e-05 181.607 0 2.71076 8.46459 -1.36992 -2.27532 -28.29961 3.32415 4.52079 20.72302 -14.96598 8.3852 10.69757 82.83819 0.45075 1.97999 21.51836 3.60203 -2.0972 7.90997 -75.38446 -5.57383 -0.92258 0.58648 2.74066 10.54397 -20.20664 12.22922 -9.9098 -12.932 0.80031 -1.8364 -5.8209 -16.70108 8.98405 7.35853 12.15883
-0.00085 0.95603 -1e-05 181.59721 0 2.71227 8.48439 -1.36582 -2.24552 -28.1887 3.28284 4.41329 20.62133 -14.88864 8.49642 10.75096 82.84417 0.42118 1.94391 21.34516 3.77832 -2.40087 7.98621 -75.38259 -5.59551 -0.9085 0.60665 2.73938 10.54581 -20.23624 12.22421 -9.91287 -12.92601 0.80677 -1.83867 -5.8141 -16.70712 8.97626 7.35942 12.16123
-0.00073 0.95607 0 181.58913 0 2.71477 8.49641 -1.36044 -2.21209 -28.06029 3.23118 4.28683 20.50035 -14.79649 8.61881 10.82295 82.83437 0.3859 1.90212 21.12692 3.986 -2.7265 8.07784 -75.3205 -5.61235 -0.90329 0.63263 2.73855 10.55038 -20.27326 12.21779 -9.91713 -12.92476 0.81665 -1.84112 -5.80288 -16.71421 8.96724 7.35957 12.15692
-0.00063 0.95611 1e-05 181.57888 0 2.71683 8.51195 -1.35562 -2.18025 -27.94435 3.18542 4.17354 20.39007 -14.7146 8.73332 10.887 82.83322 0.35413 1.86023 20.93345 4.17478 -3.03837 8.16085 -75.28904 -5.62755 -0.89496 0.65676 2.7378 10.55661 -20.30818 12.21256 -9.92103 -12.92263 0.8255 -1.8437 -5.79278 -16.72212 8.95955 7.36025 12.15605
-0.00054 0.95615 1e-05 181.57414 0 2.71876 8.527 -1.35056 -2.14827 -27.80619 3.13455 4.04037 20.2671 -14.61665 8.85541 10.94994 82.82567 0.31645 1.82697 20.71615 4.38401 -3.36403 8.25187 -75.24463 -5.65955 -0.88233 0.67769 2.73584 10.5506 -20.33777 12.20504 -9.92421 -12.91474 0.83233 -1.84535 -5.7864 -16.72493 8.94874 7.35995 12.15383
-0.00041 0.95617 3e-05 181.55862 0 2.72137 8.54172 -1.34606 -2.11605 -27.71386 3.09213 3.94467 20.1716 -14.55009 8.96948 11.01851 82.82835 0.29217 1.777 20.54406 4.55761 -3.66783 8.32783 -75.21131 -5.65417 -0.88197 0.70672 2.7364 10.57056 -20.38046 12.20204 -9.92929 -12.92003 0.84397 -1.84908 -5.7713 -16.73816 8.944 7.36152 12.15267
-0.0002 0.95614 9e-05 181.51155 0 2.72402 8.55355 -1.34049 -2.08223 -27.72205 3.07235 3.95268 20.11017 -14.56114 9.01618 11.10812 82.85564 0.28458 1.66177 20.45888 4.62791 -3.89802 8.37965 -75.23983 -5.56092 -0.89938 0.7555 2.74507 10.66326 -20.45415 12.21061 -9.93784 -12.96157 0.87002 -1.85734 -5.73273 -16.78408 8.95723 7.36909 12.15651
5e-05 0.95608 0.00017 181.45419 0 2.72759 8.56587 -1.33604 -2.04895 -27.78289 3.06175 3.99961 20.08677 -14.60646 9.06265 11.20178 82.89488 0.29391 1.53299 20.43097 4.66122 -4.10854 8.41291 -75.27924 -5.42892 -0.93048 0.81243 2.75604 10.78135 -20.54123 12.22394 -9.94846 -13.01606 0.90065 -1.86786 -5.68592 -16.83984 8.9764 7.37844 12.16151
0.00027 0.95603 0.00024 181.40206 0 2.73182 8.5808 -1.33308 -2.01627 -27.83924 3.04932 4.03201 20.07509 -14.64473 9.13682 11.28579 82.93375 0.31078 1.42512 20.40795 4.7089 -4.33156 8.43961 -75.30212 -5.30386 -0.96539 0.86637 2.76512 10.88719 -20.62448 12.236 -9.95918 -13.06406 0.92762 -1.87813 -5.64277 -16.88812 8.9923 7.38662 12.16571
0.00051 0.95599 0.00032 181.34634 0 2.73166 8.5843 -1.32181 -1.9787 -27.81195 3.02766 4.05162 19.93599 -14.64743 9.09383 11.39959 82.9516 0.26652 1.25842 20.24904 4.76576 -4.53436 8.52609 -75.36913 -5.21848 -0.96168 0.91747 2.77772 10.9976 -20.69892 12.24451 -9.96583 -13.11487 0.96046 -1.8852 -5.59852 -16.94843 9.01075 7.39644 12.17096
0.00074 0.95593 0.00038 181.2973 0 2.7407 8.61082 -1.3279 -1.95295 -27.97282 3.0263 4.10587 20.07695 -14.73139 9.29597 11.45684 83.01516 0.34947 1.20652 20.39211 4.79708 -4.78175 8.48853 -75.35091 -5.0478 -1.03727 0.9764 2.78358 11.10263 -20.79423 12.26123 -9.9811 -13.16274 0.98324 -1.89935 -5.55629 -16.9869 9.02508 7.40309 12.17421
0.00085 0.95583 0.00038 181.25427 0 2.77616 8.70918 -1.38352 -1.94691 -28.62989 3.08939 4.25932 20.9357 -15.04134 10.16214 11.31777 83.21138 0.8157 1.51294 21.31423 4.743 -5.09239 8.07169 -75.06674 -4.5943 -1.3658 1.05457 2.7698 11.20325 -20.94872 12.30218 -10.02245 -13.20023 0.96738 -1.93359 -5.50723 -16.95469 9.0286 7.40218 12.17319
0.00096 0.95571 0.00036 181.22071 0 2.82061 8.82895 -1.45617 -1.95491 -29.4762 3.17065 4.44405 22.08327 -15.43 11.27603 11.13014 83.45131 1.40262 1.92736 22.54564 4.66876 -5.45983 7.53996 -74.70197 -4.06611 -1.76716 1.14043 2.74928 11.29487 -21.1228 12.35067 -10.07181 -13.23414 0.94291 -1.97464 -5.46285 -16.90145 9.02733 7.39771 12.16992
0.00111 0.95561 0.00035 181.19313 0 2.86014 8.93373 -1.51987 -1.96523 -30.24334 3.23672 4.60584 23.12957 -15.77635 12.28657 10.98874 83.66549 1.91066 2.26864 23.66306 4.61937 -5.84447 7.08568 -74.39271 -3.61031 -2.10998 1.22295 2.73209 11.37917 -21.28476 12.39403 -10.11576 -13.26907 0.9289 -2.01189 -5.42621 -16.86329 9.02701 7.39385 12.16661
0.0011 0.95548 0.00036 181.12343 0 2.90326 9.06164 -1.58892 -1.93985 -30.98502 3.33249 4.80536 24.05238 -16.15203 13.26358 10.7403 83.90583 2.52089 2.71487 24.6723 4.50272 -6.04977 6.5173 -74.00401 -2.99404 -2.55857 1.3049 2.71369 11.51086 -21.46088 12.44503 -10.16754 -13.30697 0.88791 -2.05233 -5.349 -16.80291 9.03234 7.39442 12.16756
0.00141 0.9554 0.00032 181.1418 0 2.94098 9.14533 -1.65062 -1.99089 -31.82203 3.37046 4.93378 25.29822 -16.48421 14.36244 10.70972 84.10075 2.94652 2.96352 25.97705 4.52156 -6.63867 6.16818 -73.7616 -2.69079 -2.80663 1.39001 2.69636 11.54346 -21.61182 12.48148 -10.20453 -13.33771 0.90041 -2.08754 -5.3558 -16.78274 9.02437 7.38476 12.15942
